# File created by Blade
# Date/Time:  Wed Sep 24 20:26:02 2014
# Frame Rate: 120.000 fps
#------------------------------------------------------
:FULLY-SPECIFIED
:DEGREES
247
root -8.465656 32.487543 -0.341857 25.870357 -81.793055 -12.366140
Spine -12.554127 5.915604 -3.576586
Head -4.205484 -9.146946 13.200276
LeftShoulder -14.121952 22.391342 13.933221
LeftArm 16.547956 8.571134 -72.563234
LeftForeArm 4.718043 -0.000000 17.209983
LeftHand -28.498614 -0.000000 -0.610996
LeftHandThumb1 -26.253704 0.000000 33.147579
RightShoulder -20.249188 10.919886 -25.625641
RightArm -21.482044 0.365825 81.116802
RightForeArm -26.237629 0.000000 17.131569
RightHand -10.135168 -0.000000 -1.615533
RightHandThumb1 -24.326973 -0.000000 -32.862282
LeftUpLeg -7.399561 0.477318 -3.393052
LeftLeg -3.961096 -0.000000 0.000000
LeftFoot -10.915269 7.994331 -11.384595
LeftToeBase 6.384326 -0.000000 -0.000000
RightUpLeg -8.945550 -10.721109 -6.629088
RightLeg 3.038544 -0.000000 -0.000000
RightFoot -8.820756 -2.598115 3.428956
RightToeBase -0.921988 -0.000000 0.000000
248
root -8.460190 32.485684 -0.321485 26.379987 -81.862257 -12.840467
Spine -12.531056 5.942230 -3.587131
Head -4.220188 -9.102922 13.304165
LeftShoulder -14.076641 22.230190 13.867656
LeftArm 16.346388 9.090347 -73.086748
LeftForeArm 4.625873 0.000000 17.218171
LeftHand -28.337537 -0.000000 -0.772753
LeftHandThumb1 -26.253704 0.000000 33.147579
RightShoulder -20.292473 10.927249 -25.486486
RightArm -21.338024 -0.141345 81.807163
RightForeArm -26.214394 -0.000000 16.888742
RightHand -9.920447 -0.000000 -1.045999
RightHandThumb1 -24.326973 -0.000000 -32.862282
LeftUpLeg -7.447676 0.536865 -3.400665
LeftLeg -3.945636 -0.000000 0.000000
LeftFoot -10.955102 8.032316 -11.330426
LeftToeBase 6.440495 -0.000000 -0.000000
RightUpLeg -9.020304 -10.741275 -6.612052
RightLeg 3.051953 -0.000000 -0.000000
RightFoot -8.780410 -2.496180 3.508016
RightToeBase -0.925084 -0.000000 0.000000
249
root -8.451905 32.484210 -0.300476 26.882387 -81.934993 -13.295154
Spine -12.520124 5.974855 -3.604759
Head -4.256625 -9.099149 13.387728
LeftShoulder -14.037134 22.139359 13.823292
LeftArm 16.273835 9.576149 -73.645702
LeftForeArm 4.405947 -0.000000 17.185780
LeftHand -28.455271 -0.000000 -0.571790
LeftHandThumb1 -26.253704 0.000000 33.147579
RightShoulder -20.359887 10.937503 -25.340071
RightArm -21.209298 -0.726199 82.492967
RightForeArm -26.143170 -0.000000 16.694899
RightHand -9.738447 -0.000000 -0.749737
RightHandThumb1 -24.326973 -0.000000 -32.862282
LeftUpLeg -7.515059 0.565928 -3.408979
LeftLeg -3.925986 -0.000000 0.000000
LeftFoot -10.982240 8.097731 -11.256520
LeftToeBase 6.368460 -0.000000 -0.000000
RightUpLeg -9.119002 -10.763256 -6.599500
RightLeg 3.079615 -0.000000 -0.000000
RightFoot -8.723865 -2.380596 3.560233
RightToeBase -0.940879 -0.000000 0.000000
250
root -8.445164 32.482260 -0.279193 27.387323 -82.003241 -13.761753
Spine -12.497699 5.988658 -3.613433
Head -4.270494 -9.071949 13.479091
LeftShoulder -14.009720 21.988253 13.777304
LeftArm 16.075507 10.260842 -74.118636
LeftForeArm 4.050481 -0.000000 17.343719
LeftHand -28.492926 -0.000000 -0.607139
LeftHandThumb1 -26.253704 0.000000 33.147579
RightShoulder -20.417566 10.927950 -25.216071
RightArm -21.092806 -1.645600 83.304332
RightForeArm -25.877245 0.000000 16.578782
RightHand -9.623367 -0.000000 -0.562397
RightHandThumb1 -24.326973 -0.000000 -32.862282
LeftUpLeg -7.568266 0.548607 -3.408029
LeftLeg -3.906237 -0.000000 0.000000
LeftFoot -11.037909 8.202192 -11.220508
LeftToeBase 6.392579 -0.000000 -0.000000
RightUpLeg -9.200641 -10.830031 -6.574955
RightLeg 3.083468 -0.000000 -0.000000
RightFoot -8.585621 -2.291931 3.401022
RightToeBase -1.183592 -0.000000 0.000000
